REM DISCID A812720B
REM COMMENT "ExactAudioCopy v0.95b3"
PERFORMER "Unknown Artist"
TITLE "Unknown Title"
FILE "01 - Unknown Artist - Track01.wav" WAVE
  TRACK 01 AUDIO
    TITLE "Track01"
    PERFORMER "Unknown Artist"
    INDEX 01 00:00:00
FILE "02 - Unknown Artist - Track02.wav" WAVE
  TRACK 02 AUDIO
    TITLE "Track02"
    PERFORMER "Unknown Artist"
    INDEX 01 00:00:00
  TRACK 03 AUDIO
    TITLE "Track03"
    PERFORMER "Unknown Artist"
    INDEX 00 09:10:43
FILE "03 - Unknown Artist - Track03.wav" WAVE
    INDEX 01 00:00:00
  TRACK 04 AUDIO
    TITLE "Track04"
    PERFORMER "Unknown Artist"
    INDEX 00 08:56:57
FILE "04 - Unknown Artist - Track04.wav" WAVE
    INDEX 01 00:00:00
  TRACK 05 AUDIO
    TITLE "Track05"
    PERFORMER "Unknown Artist"
    INDEX 00 08:20:12
FILE "05 - Unknown Artist - Track05.wav" WAVE
    INDEX 01 00:00:00
  TRACK 06 AUDIO
    TITLE "Track06"
    PERFORMER "Unknown Artist"
    INDEX 00 08:48:29
FILE "06 - Unknown Artist - Track06.wav" WAVE
    INDEX 01 00:00:00
  TRACK 07 AUDIO
    TITLE "Track07"
    PERFORMER "Unknown Artist"
    INDEX 00 07:10:48
FILE "07 - Unknown Artist - Track07.wav" WAVE
    INDEX 01 00:00:00
  TRACK 08 AUDIO
    TITLE "Track08"
    PERFORMER "Unknown Artist"
    INDEX 00 08:10:66
FILE "08 - Unknown Artist - Track08.wav" WAVE
    INDEX 01 00:00:00
  TRACK 09 AUDIO
    TITLE "Track09"
    PERFORMER "Unknown Artist"
    INDEX 00 06:59:72
FILE "09 - Unknown Artist - Track09.wav" WAVE
    INDEX 01 00:00:00
FILE "10 - Unknown Artist - Track10.wav" WAVE
  TRACK 10 AUDIO
    TITLE "Track10"
    PERFORMER "Unknown Artist"
    INDEX 01 00:00:00
  TRACK 11 AUDIO
    TITLE "Track11"
    PERFORMER "Unknown Artist"
    INDEX 00 06:31:27
FILE "11 - Unknown Artist - Track11.wav" WAVE
    INDEX 01 00:00:00
